<?xml version="1.0" ?><svg id="Home_workout_application" viewBox="0 0 512 512" xmlns="http://www.w3.org/2000/svg"><path d="M141.25,434.4912A25.5082,25.5082,0,0,0,166.7583,460H345.24a25.51,25.51,0,0,0,25.51-25.5088V387.75H141.25Zm89.2458-23.3662h51a12.75,12.75,0,0,1,0,25.5h-51a12.75,12.75,0,0,1,0-25.5Z"/><path d="M345.24,52H166.7583A25.5087,25.5087,0,0,0,141.25,77.5093V362.25h229.5V77.5093A25.51,25.51,0,0,0,345.24,52ZM328.25,247.5171A12.7341,12.7341,0,0,1,315.5166,260.25H298.4813A12.7324,12.7324,0,0,1,285.75,247.5171V234.75l-.0042,0H226.25v12.7671A12.7341,12.7341,0,0,1,213.5166,260.25H196.4813A12.7324,12.7324,0,0,1,183.75,247.5171V196.4834A12.7328,12.7328,0,0,1,196.4813,183.75h17.0353A12.7346,12.7346,0,0,1,226.25,196.4834V209.25h59.4958l.0042,0V196.4834A12.7328,12.7328,0,0,1,298.4813,183.75h17.0353A12.7346,12.7346,0,0,1,328.25,196.4834Z"/></svg>